<?xml version="1.0" standalone="no"?>
<!DOCTYPE svg PUBLIC "-//W3C//DTD SVG 20010904//EN"
 "http://www.w3.org/TR/2001/REC-SVG-20010904/DTD/svg10.dtd">
<svg version="1.0" xmlns="http://www.w3.org/2000/svg"
 width="600.000000pt" height="600.000000pt" viewBox="0 0 600.000000 600.000000"
 preserveAspectRatio="xMidYMid meet">
<metadata>
Created by potrace 1.11, written by Peter Selinger 2001-2013
</metadata>
<g transform="translate(0.000000,600.000000) scale(0.100000,-0.100000)"
fill="#000000" stroke="none">
<path d="M2769 5656 c-2 -2 -33 -6 -69 -10 -36 -3 -76 -8 -90 -11 -14 -2 -43
-7 -65 -10 -81 -12 -132 -22 -225 -46 -80 -21 -228 -68 -245 -78 -5 -3 -14 -6
-20 -6 -13 -1 -25 -7 -155 -63 -301 -132 -559 -309 -795 -546 -172 -173 -259
-281 -382 -476 -48 -76 -187 -337 -184 -347 0 -2 -7 -20 -16 -40 -23 -55 -82
-222 -88 -247 -2 -11 -11 -43 -20 -71 -8 -27 -15 -51 -15 -52 0 -2 0 -4 -1 -5
-2 -7 -8 -37 -14 -68 -3 -19 -10 -51 -15 -70 -7 -31 -14 -73 -26 -160 -25
-180 -24 -505 1 -695 11 -87 38 -215 66 -323 32 -122 96 -311 110 -327 5 -5 9
-15 9 -22 0 -15 84 -187 140 -288 32 -58 139 -225 150 -235 3 -3 17 -21 30
-40 14 -19 32 -44 42 -55 9 -11 33 -40 53 -65 50 -62 209 -223 285 -290 99
-87 336 -260 356 -260 4 0 15 -6 23 -14 49 -44 392 -202 543 -250 75 -24 195
-57 224 -62 16 -3 36 -7 44 -9 8 -2 29 -7 45 -10 17 -2 41 -7 55 -10 14 -3 45
-8 70 -11 25 -3 58 -7 75 -10 163 -23 492 -22 641 1 16 3 43 7 59 10 17 2 48
7 70 11 22 3 58 10 80 15 22 5 51 12 65 15 14 3 59 14 100 26 452 125 869 371
1196 708 85 87 116 122 152 170 14 19 34 43 44 52 26 27 188 273 188 286 0 7
3 12 8 12 4 0 18 24 32 53 14 28 31 58 38 65 6 7 12 17 12 22 0 4 17 46 39 92
42 90 117 290 125 330 2 14 11 45 20 70 15 46 60 259 69 333 28 209 28 574 2
705 -3 14 -7 48 -10 75 -4 28 -11 68 -17 90 -6 22 -11 44 -10 48 5 17 -79 302
-108 372 -4 11 -25 61 -45 110 -144 352 -404 709 -701 966 -51 43 -97 79 -103
79 -6 0 -11 4 -11 10 0 5 -28 28 -62 52 -35 23 -67 46 -73 50 -57 48 -320 191
-460 251 -142 60 -356 127 -485 151 -14 3 -47 9 -75 15 -27 5 -77 13 -110 16
-33 4 -69 9 -80 12 -23 6 -481 14 -486 9z m341 -60 c58 -2 152 -12 210 -20
114 -18 121 -19 195 -36 28 -6 59 -13 70 -16 56 -11 242 -71 335 -107 245 -97
535 -269 735 -437 65 -55 243 -234 290 -291 27 -34 55 -67 62 -75 7 -7 56 -76
107 -153 102 -152 233 -406 291 -565 36 -99 98 -314 109 -377 3 -19 8 -45 11
-59 3 -14 8 -44 11 -66 2 -23 7 -53 10 -65 18 -93 25 -454 10 -564 -17 -132
-23 -166 -41 -255 -99 -488 -346 -962 -682 -1305 -306 -313 -708 -555 -1128
-679 -119 -35 -329 -80 -415 -90 -294 -32 -497 -27 -750 21 -184 34 -176 32
-205 43 -14 5 -25 7 -25 4 0 -2 -13 2 -30 11 -16 9 -30 13 -30 11 0 -3 -37 8
-82 23 -535 183 -979 508 -1293 946 -117 163 -262 433 -311 575 -10 30 -21 60
-25 65 -3 6 -21 57 -39 115 -32 103 -36 121 -46 170 -3 14 -9 39 -14 55 -5 17
-11 48 -15 70 -5 37 -7 52 -20 130 -20 126 -27 414 -12 555 13 135 18 163 48
305 29 136 100 367 139 452 11 24 20 46 20 50 0 3 27 60 60 125 156 308 335
544 589 778 169 155 471 346 711 449 158 67 484 164 593 175 31 4 97 13 147
21 14 3 66 7 115 10 49 3 90 7 91 8 3 2 46 1 204 -7z"/>
<path d="M2692 5491 c-45 -10 -86 -18 -90 -18 -3 -1 -8 -7 -11 -14 -2 -8 3
-10 17 -7 35 9 50 -13 66 -92 21 -105 22 -125 11 -125 -9 -1 -121 -20 -178
-31 -10 -2 -27 -6 -37 -9 -19 -6 -20 -3 -35 75 -3 14 -8 51 -12 82 l-6 58 33
14 c35 14 26 30 -12 21 -25 -5 -55 -10 -125 -21 -40 -6 -60 -22 -30 -25 6 -1
17 -2 22 -4 6 -1 15 -3 22 -3 14 -2 17 -16 58 -247 42 -234 41 -221 5 -244
-19 -11 -27 -22 -21 -25 6 -4 14 -5 19 -3 4 3 25 8 47 11 22 4 56 9 75 13 19
4 38 7 43 8 17 1 5 20 -13 21 -11 1 -24 2 -29 3 -10 1 -18 22 -26 63 -18 91
-25 135 -25 154 0 22 0 22 150 50 46 8 89 10 90 4 1 -3 5 -23 10 -45 5 -22 12
-60 16 -85 3 -25 7 -55 9 -67 4 -25 -18 -53 -41 -53 -8 0 -14 -5 -14 -11 0
-12 13 -11 147 12 60 11 78 29 29 29 -35 0 -50 27 -62 115 -2 16 -6 41 -9 55
-2 14 -7 36 -10 50 -2 14 -7 41 -11 60 -3 19 -11 67 -18 105 -14 85 -11 103
20 115 13 5 24 14 24 20 0 12 6 12 -98 -9z"/>
<path d="M2995 5476 c40 -38 40 -42 21 -196 -8 -63 -17 -144 -21 -200 -6 -73
-22 -103 -52 -97 -15 3 -23 -1 -23 -9 0 -8 10 -14 23 -15 12 0 31 -2 41 -4 52
-10 100 -9 104 3 2 7 -5 12 -16 12 -42 0 -48 43 -28 195 2 17 7 57 11 90 4 33
8 70 10 83 1 12 4 24 6 27 4 3 254 -389 286 -447 9 -16 13 -18 14 -8 2 25 12
99 24 190 2 19 7 62 10 95 5 58 11 111 21 185 6 46 17 55 68 59 6 1 6 4 0 10
-15 15 -164 26 -164 12 0 -6 9 -11 20 -11 36 0 44 -57 26 -165 -3 -16 -8 -61
-11 -100 -7 -85 -10 -103 -16 -109 -2 -3 -63 88 -134 201 -72 113 -135 211
-141 217 -7 7 -35 13 -64 15 l-53 2 38 -35z"/>
<path d="M3666 5403 c-3 -3 4 -17 14 -32 10 -14 20 -35 21 -46 2 -18 -3 -33
-34 -105 -6 -14 -11 -27 -12 -30 -1 -3 -5 -14 -10 -25 -5 -11 -28 -67 -52
-124 -47 -112 -67 -143 -89 -134 -8 3 -22 2 -31 -2 -13 -5 4 -16 62 -39 44
-18 84 -31 88 -29 4 3 -3 15 -18 28 -14 13 -25 27 -25 30 0 11 133 329 141
339 10 12 5 29 84 -259 37 -132 69 -247 71 -255 5 -14 72 126 78 163 1 9 8 23
14 29 7 7 12 19 12 28 0 9 4 20 8 26 5 5 23 45 41 89 48 123 63 143 100 137
51 -7 35 12 -31 38 -35 13 -68 27 -74 32 -11 8 -24 1 -24 -13 0 -4 9 -11 20
-14 12 -4 20 -15 20 -30 0 -36 -116 -315 -132 -315 -4 0 -8 2 -8 4 0 21 -134
464 -143 473 -16 15 -84 43 -91 36z"/>
<path d="M1905 5274 c-127 -43 -186 -119 -190 -244 -4 -118 67 -242 169 -296
101 -55 242 -25 317 66 89 107 65 296 -53 405 -77 73 -161 97 -243 69z m102
-45 c150 -82 234 -340 144 -443 -88 -100 -243 -41 -324 124 -73 149 -55 290
43 329 41 16 97 12 137 -10z"/>
<path d="M4268 5124 c-4 -3 0 -17 7 -30 12 -24 12 -58 0 -149 -3 -22 -8 -65
-11 -95 -8 -71 -9 -72 -79 -162 -60 -78 -79 -88 -115 -66 -10 7 -22 9 -26 5
-4 -4 -5 -8 -3 -10 125 -96 168 -127 177 -127 17 0 15 6 -13 34 -24 24 -25 28
-11 53 8 16 37 57 66 93 45 57 62 70 142 108 50 23 97 42 104 42 8 0 14 4 14
8 0 10 16 13 78 15 23 1 42 4 42 7 0 3 -22 22 -50 43 -31 23 -51 33 -56 26 -4
-6 -1 -14 5 -18 6 -4 9 -14 6 -22 -6 -15 -198 -104 -212 -98 -9 4 -9 6 1 94
13 106 14 112 26 134 9 17 14 20 25 11 10 -8 15 -8 21 1 4 6 0 15 -9 20 -8 5
-38 27 -66 49 -54 43 -55 43 -63 34z"/>
<path d="M1474 5007 c-95 -68 -161 -143 -94 -107 33 17 55 4 112 -68 29 -36
77 -94 107 -127 106 -118 133 -182 91 -220 -26 -24 -79 -24 -96 0 -8 10 -20
15 -29 11 -14 -5 -12 -11 12 -41 33 -41 43 -43 97 -11 72 42 102 103 81 166
-7 23 -76 117 -131 180 -12 14 -49 59 -82 100 l-60 75 20 33 c23 37 15 40 -28
9z"/>
<path d="M2815 4850 c-8 -36 -14 -40 -61 -42 l-37 -1 33 -27 c30 -25 32 -30
26 -65 l-8 -39 34 26 34 26 37 -19 c42 -22 43 -20 21 22 -8 17 -14 32 -12 33
2 1 18 14 36 29 l34 27 -43 -3 c-38 -3 -43 -1 -61 30 -11 18 -21 33 -23 33 -2
0 -6 -13 -10 -30z"/>
<path d="M3150 4839 c-12 -28 -15 -30 -58 -25 l-45 5 31 -30 31 -31 -20 -39
-20 -40 40 21 c22 11 42 20 44 20 2 0 17 -11 33 -25 34 -29 40 -26 26 14 -10
27 -8 33 15 51 14 11 30 20 34 20 5 0 9 4 9 8 0 4 -15 9 -32 10 -35 3 -58 24
-58 54 0 28 -16 21 -30 -13z"/>
<path d="M2479 4797 c-1 -12 -1 -25 0 -30 1 -4 -11 -12 -26 -18 -16 -5 -35
-12 -43 -15 -11 -4 -4 -11 22 -25 34 -18 36 -21 32 -59 l-5 -40 33 34 c32 33
34 34 67 20 44 -19 44 -19 22 22 l-20 36 25 27 c31 33 31 43 -2 31 -39 -15
-62 -12 -69 9 -9 29 -35 35 -36 8z"/>
<path d="M3485 4774 c-17 -27 -37 -28 -89 -8 -16 6 -15 2 7 -31 22 -33 24 -40
11 -52 -8 -8 -19 -23 -24 -33 -9 -17 -7 -18 22 -9 51 14 62 11 83 -23 l20 -33
5 45 c4 40 8 45 38 54 40 11 41 22 2 31 -33 7 -44 19 -46 53 -2 34 -9 35 -29
6z"/>
<path d="M2156 4665 c3 -32 0 -37 -34 -51 l-37 -17 40 -12 c35 -10 40 -16 42
-45 4 -46 9 -48 33 -8 18 31 25 35 53 32 17 -2 39 -6 47 -10 14 -5 -27 47 -42
54 -4 2 1 21 12 43 22 42 19 46 -20 24 -32 -19 -33 -18 -60 5 -32 28 -37 25
-34 -15z"/>
<path d="M3796 4646 l-29 -24 -33 20 c-38 22 -41 20 -19 -22 14 -27 14 -31 -2
-48 -46 -46 -46 -50 -3 -42 43 8 61 -3 76 -50 7 -24 8 -23 19 15 10 35 16 41
55 50 l43 11 -40 18 c-39 17 -41 19 -36 57 3 21 4 39 2 39 -2 -1 -17 -11 -33
-24z"/>
<path d="M4603 4598 c-1 -24 -15 -113 -18 -116 -2 -2 -34 -12 -72 -21 l-68
-18 63 -32 64 -32 -5 -65 c-3 -35 -4 -64 -2 -64 2 0 25 23 52 51 l48 51 68
-26 c37 -14 67 -23 67 -21 0 3 -16 29 -35 59 l-35 54 45 54 c24 29 40 54 36
56 -4 1 -36 -4 -70 -12 l-62 -14 -36 54 c-20 30 -37 54 -38 54 -1 0 -2 -6 -2
-12z"/>
<path d="M1300 4534 c0 -5 -18 -28 -40 -50 l-39 -42 -66 24 c-36 13 -65 21
-65 18 0 -3 13 -24 28 -47 33 -49 44 -75 34 -81 -4 -2 -23 -26 -41 -52 -38
-52 -40 -50 39 -29 72 18 73 18 115 -40 22 -30 42 -55 45 -55 3 0 5 30 5 67
l0 66 55 19 c30 10 62 21 70 24 9 3 -9 14 -45 26 -33 11 -64 24 -69 29 -6 5
-11 34 -12 65 -1 30 -5 58 -8 61 -3 4 -6 2 -6 -3z"/>
<path d="M1955 4515 l-29 -24 -35 21 -34 22 7 -30 c4 -16 8 -33 9 -38 1 -5
-13 -20 -32 -33 -19 -12 -32 -23 -30 -24 2 0 20 -3 39 -6 42 -6 39 -3 55 -49
l12 -37 15 44 c14 41 17 44 51 45 50 1 54 9 18 30 -19 11 -29 24 -26 34 10 35
17 70 14 70 -2 -1 -17 -12 -34 -25z"/>
<path d="M3994 4465 c4 -16 8 -34 9 -39 1 -5 -13 -20 -32 -33 -19 -12 -30 -24
-25 -25 5 0 14 -2 19 -3 6 -2 22 -3 36 -4 21 -1 28 -8 39 -43 l13 -43 11 32
c15 43 20 46 63 45 l38 -1 -32 29 c-29 26 -31 33 -23 55 16 42 12 47 -19 29
-30 -18 -40 -16 -80 13 l-24 18 7 -30z"/>
<path d="M2887 4414 c-13 -22 -85 -194 -81 -194 3 0 23 9 44 20 l40 20 0 -321
c0 -252 3 -320 13 -316 9 3 12 75 12 315 0 172 3 312 8 312 4 0 21 -7 38 -15
l30 -16 -39 78 c-21 43 -43 89 -48 102 -6 14 -13 20 -17 15z"/>
<path d="M2647 4393 c-6 -10 -57 -179 -57 -188 0 -4 12 0 26 10 14 9 28 14 31
11 3 -3 14 -58 24 -123 9 -65 21 -138 25 -163 7 -48 9 -59 19 -135 4 -27 9
-59 11 -70 2 -11 7 -42 10 -70 7 -55 10 -65 25 -65 11 0 8 37 -11 155 -15 98
-18 114 -24 165 -3 25 -8 54 -10 65 -2 11 -7 40 -10 65 -3 25 -8 54 -10 66
-13 63 -16 124 -8 124 5 0 26 -7 46 -15 l37 -16 -12 23 c-7 13 -25 42 -40 65
-16 23 -29 45 -29 48 0 13 -38 56 -43 48z"/>
<path d="M3076 4310 c-31 -49 -56 -92 -56 -94 0 -3 16 2 35 10 49 20 56 18 50
-15 -4 -26 -10 -63 -20 -138 -4 -30 -15 -101 -22 -138 -6 -37 -10 -65 -18
-134 -3 -30 -8 -58 -10 -62 -3 -4 -7 -33 -11 -65 -3 -32 -7 -62 -10 -66 -3 -4
1 -8 10 -8 9 0 17 15 21 43 4 23 9 49 10 57 2 8 6 35 9 60 3 25 8 56 11 70 3
14 8 50 11 80 3 30 7 57 9 60 2 3 6 29 10 59 4 30 9 63 11 75 2 12 7 44 10 71
4 28 8 52 10 54 2 2 15 -4 30 -13 14 -10 27 -16 29 -14 5 5 -54 198 -60 198
-2 0 -29 -40 -59 -90z"/>
<path d="M1740 4345 c-22 -23 -24 -24 -58 -9 -19 8 -36 13 -38 11 -1 -1 4 -17
13 -35 15 -32 15 -33 -16 -63 l-33 -31 44 4 c40 3 44 1 58 -29 13 -29 32 -46
29 -25 -1 4 2 22 6 39 6 27 13 34 44 40 20 4 39 6 44 5 4 -1 7 0 7 3 0 3 -16
12 -36 20 -34 14 -36 17 -32 55 4 47 0 49 -32 15z"/>
<path d="M2399 4339 c-1 -18 -8 -78 -18 -151 -4 -32 -6 -58 -5 -58 2 0 15 11
29 26 l25 25 11 -28 c6 -15 30 -86 54 -158 46 -137 142 -420 151 -444 3 -10 8
-11 15 -4 7 7 -2 44 -26 114 -20 57 -37 109 -38 116 -10 44 -94 279 -102 285
-5 4 -7 8 -3 8 3 0 -2 25 -13 55 -10 30 -19 59 -19 63 0 5 18 6 43 2 23 -5 43
-7 45 -6 1 2 -8 14 -20 28 -13 13 -47 51 -75 83 -29 32 -53 52 -54 44z"/>
<path d="M3330 4289 c-25 -28 -58 -64 -74 -81 l-29 -29 53 7 c50 7 53 6 46
-12 -5 -10 -48 -138 -98 -284 -49 -146 -96 -279 -103 -297 -11 -26 -11 -34 0
-43 9 -8 15 -8 20 0 3 5 4 10 1 10 -3 0 2 17 10 37 9 20 17 44 19 52 4 19 176
525 180 529 1 1 14 -10 30 -25 l27 -28 -5 45 c-4 25 -9 73 -13 108 -4 34 -10
62 -13 62 -4 0 -27 -23 -51 -51z"/>
<path d="M788 4220 c-15 -33 -23 -62 -18 -65 5 -3 13 3 19 12 8 14 14 16 28 7
19 -12 148 -183 142 -189 -2 -2 -29 -6 -59 -9 -181 -18 -210 -16 -197 18 4 9
2 16 -3 16 -11 0 -83 -151 -75 -158 3 -3 13 2 22 11 25 22 61 29 218 43 105
10 104 10 195 -33 103 -48 113 -59 100 -101 -18 -63 11 -31 55 61 52 107 56
131 16 88 -33 -36 -31 -36 -162 25 -51 24 -82 46 -93 65 -9 15 -23 35 -32 43
-8 8 -39 52 -69 96 -42 63 -54 87 -49 106 11 45 -11 24 -38 -36z"/>
<path d="M4244 4241 c3 -39 1 -42 -36 -58 l-38 -17 42 -16 c36 -13 44 -20 46
-45 5 -44 17 -50 32 -15 11 28 17 31 45 27 18 -3 38 -8 44 -11 19 -12 12 5
-14 36 -23 28 -24 31 -10 58 20 39 19 41 -11 30 -37 -14 -41 -13 -73 21 l-29
30 2 -40z"/>
<path d="M3600 4254 c0 -6 -22 -27 -49 -47 -27 -21 -64 -51 -83 -67 l-33 -29
37 2 c61 5 63 -3 20 -84 -75 -138 -172 -323 -192 -363 -11 -23 -48 -69 -84
-104 -35 -35 -72 -79 -81 -97 -24 -51 -17 -102 18 -131 16 -13 33 -22 38 -18
5 3 9 0 9 -5 0 -6 3 -11 8 -10 20 3 52 -16 58 -34 5 -16 -1 -28 -27 -49 -18
-15 -29 -28 -24 -28 6 0 3 -5 -7 -10 -9 -6 -20 -29 -24 -53 -4 -23 -9 -45 -10
-49 -1 -5 -2 -13 -3 -19 0 -5 -22 5 -48 23 -27 18 -50 34 -52 35 -2 1 2 24 10
50 8 26 13 62 11 78 -3 37 -22 85 -33 85 -5 0 -9 6 -9 14 0 17 -111 52 -177
55 -29 1 -63 -4 -75 -11 -13 -7 -25 -12 -28 -13 -21 -1 -90 -30 -90 -37 0 -5
-4 -6 -10 -3 -5 3 -10 2 -10 -2 0 -5 -18 -28 -40 -52 -22 -23 -38 -47 -34 -52
12 -20 -13 -7 -37 19 -30 32 -44 53 -32 51 24 -6 112 55 106 73 -2 5 2 8 8 8
5 0 8 4 4 9 -3 5 -1 12 5 16 16 10 12 43 -9 64 -11 11 -17 21 -15 24 3 2 -17
26 -44 53 -48 49 -77 98 -238 409 l-82 160 51 -1 c40 -1 48 1 36 10 -25 18
-112 90 -133 109 -11 9 -23 17 -26 17 -4 0 -5 -26 -4 -57 1 -32 3 -80 3 -108
l2 -50 24 30 c13 16 26 27 28 25 2 -3 43 -79 90 -170 47 -91 96 -184 109 -207
12 -23 20 -45 16 -48 -3 -4 -37 8 -75 27 -37 18 -71 32 -75 30 -5 -1 -8 3 -8
8 0 6 -5 10 -12 10 -7 0 -38 8 -71 17 l-58 18 5 38 c3 22 1 47 -4 57 -9 17
-49 35 -98 45 -38 7 -63 26 -58 43 12 41 10 115 -3 107 -5 -3 -12 -1 -16 5
-11 18 -66 7 -78 -15 -6 -11 -12 -22 -12 -25 0 -3 -6 -15 -13 -27 -7 -13 -10
-23 -6 -23 3 0 1 -6 -5 -14 -7 -8 -13 -35 -14 -60 -1 -53 13 -73 78 -106 25
-13 43 -25 40 -28 -3 -3 0 -10 5 -17 5 -6 12 -29 15 -51 3 -21 8 -45 10 -51 6
-18 5 -18 -108 36 -137 67 -257 98 -314 82 -50 -14 -55 -34 -14 -51 16 -6 39
-22 52 -36 12 -13 27 -24 33 -24 16 -1 48 -48 36 -55 -15 -9 7 -56 42 -87 17
-15 39 -45 48 -66 10 -22 34 -52 53 -67 31 -23 34 -29 24 -45 -9 -16 -7 -25
11 -50 12 -16 18 -30 13 -30 -5 0 -17 -7 -25 -16 -14 -13 -14 -19 -1 -43 11
-21 11 -31 2 -40 -8 -8 -8 -19 1 -43 10 -27 9 -34 -3 -41 -20 -11 -19 -56 2
-79 9 -10 18 -30 19 -44 2 -14 10 -31 20 -38 13 -10 14 -17 6 -32 -12 -24 1
-60 26 -68 14 -5 17 -13 14 -37 -4 -26 0 -31 27 -42 23 -8 30 -16 25 -29 -8
-27 5 -58 25 -58 13 0 18 -8 18 -31 0 -36 15 -49 56 -43 22 2 28 0 23 -11 -3
-8 -2 -15 3 -15 5 0 8 -8 7 -17 0 -11 7 -19 21 -21 12 -2 25 -12 28 -22 8 -24
44 -30 73 -11 13 8 22 10 21 5 -5 -17 12 -52 27 -58 9 -3 24 -1 35 4 11 6 19
7 18 3 -6 -37 29 -52 66 -27 22 14 25 14 25 1 0 -9 8 -18 18 -21 11 -4 18 -15
18 -29 -1 -19 -15 -35 -61 -69 -44 -32 -74 -68 -84 -98 -9 -30 -44 -73 -61
-75 -3 -1 -22 -7 -43 -14 -49 -17 -87 -8 -80 18 8 30 -40 62 -77 51 -23 -7
-30 -5 -30 6 0 8 -7 14 -15 14 -29 0 -15 16 29 34 39 16 48 26 70 78 14 33 33
66 41 75 9 8 14 20 12 27 -5 14 -49 8 -59 -8 -4 -6 -8 -7 -8 -3 0 5 -12 0 -27
-11 -44 -30 -50 -32 -51 -19 0 7 -3 32 -5 57 -3 35 -8 46 -23 48 -16 2 -26
-11 -49 -58 -30 -62 -53 -82 -39 -32 16 56 7 142 -15 142 -14 0 -73 -94 -78
-124 -3 -20 -11 -32 -21 -32 -10 -1 -24 -3 -32 -5 -23 -6 -18 24 9 53 23 26
23 29 7 46 -15 17 -15 20 -1 32 25 21 43 63 51 116 11 87 10 89 -33 60 -41
-28 -50 -28 -34 2 6 11 13 42 15 69 3 26 10 64 15 83 6 19 11 38 11 42 0 17
-38 -8 -81 -53 l-45 -48 -33 60 c-18 33 -38 58 -44 56 -10 -3 -48 -122 -41
-129 1 -2 5 -19 8 -39 3 -20 8 -43 12 -52 7 -19 -20 -24 -31 -7 -4 6 -10 8
-15 5 -4 -2 -24 6 -44 20 -30 20 -38 22 -42 10 -14 -34 97 -193 139 -199 16
-2 19 -7 16 -21 -1 -3 -3 -9 -4 -15 -1 -5 -3 -12 -4 -15 0 -3 -14 1 -31 10
-16 9 -30 13 -30 11 0 -3 -11 -1 -25 4 -20 8 -25 6 -25 -7 0 -16 44 -81 64
-95 5 -3 2 -13 -8 -24 -17 -16 -15 -18 32 -41 40 -19 49 -27 45 -43 -3 -11 0
-26 6 -34 9 -11 6 -16 -19 -24 -16 -6 -30 -15 -30 -20 0 -9 76 -42 98 -42 21
0 1 -28 -29 -40 -30 -13 -39 -34 -16 -42 33 -12 117 4 163 31 45 27 51 12 9
-24 -24 -20 -39 -44 -50 -83 -18 -60 -16 -69 13 -53 31 16 41 13 48 -14 3 -14
10 -25 15 -25 5 0 8 -3 8 -7 -9 -57 20 -38 53 35 17 37 32 68 34 70 1 2 14 -4
28 -13 14 -10 26 -13 27 -9 0 5 4 -1 9 -14 11 -26 49 -43 79 -35 15 4 21 1 19
-8 -4 -18 58 -25 77 -9 24 20 53 -40 49 -100 -2 -45 0 -52 28 -74 43 -33 55
-25 51 32 -7 104 -27 154 -85 221 l-30 34 25 14 c40 20 93 20 109 -1 3 -5 33
-11 65 -12 32 -1 60 -3 63 -4 3 -1 12 -3 20 -4 8 0 15 -8 15 -16 0 -12 16 -15
80 -17 44 0 83 -1 87 -2 4 -1 -18 -24 -48 -53 -75 -70 -111 -126 -104 -159 4
-22 10 -25 42 -25 34 1 36 0 36 -32 0 -36 29 -68 47 -51 13 13 26 11 24 -3 -7
-53 27 -80 67 -53 26 17 44 13 44 -9 0 -16 26 -39 46 -42 8 -1 20 6 28 17 13
19 14 18 37 -16 13 -19 27 -35 31 -35 9 0 58 60 58 71 0 5 5 9 11 9 5 0 7 -4
4 -10 -9 -14 43 -60 60 -53 8 2 20 18 27 34 14 30 23 36 33 19 10 -16 75 -12
76 5 1 8 2 25 3 38 1 18 6 21 29 19 21 -3 29 2 36 21 5 13 9 32 8 43 -1 10 5
20 13 20 8 1 21 2 28 3 6 0 12 12 12 24 0 30 -62 154 -95 190 -16 16 -21 27
-13 28 7 0 38 2 68 2 52 2 55 3 55 27 -1 23 2 25 31 22 18 -2 42 -13 53 -24
14 -13 28 -17 42 -13 12 4 29 9 38 10 9 2 16 4 16 6 0 2 32 6 95 13 25 2 45 5
45 6 0 9 38 5 51 -5 16 -12 14 -18 -31 -85 -52 -75 -61 -84 -84 -85 -8 0 -19
-8 -24 -17 -14 -21 11 -52 68 -81 73 -37 150 -25 114 19 -8 10 -7 23 2 51 7
21 14 40 14 43 7 25 26 60 34 60 5 0 32 14 60 31 42 26 51 37 51 60 0 18 6 30
19 34 30 9 32 42 6 74 -13 15 -23 37 -22 49 0 12 3 19 6 16 3 -2 12 10 21 28
28 56 70 130 79 142 5 6 23 38 41 71 43 79 70 128 108 196 18 31 29 59 25 62
-3 4 -1 7 4 7 6 0 27 28 46 63 19 34 46 83 60 108 15 26 24 49 22 53 -3 3 -2
4 1 1 6 -4 133 215 192 330 8 17 27 48 42 70 14 22 25 46 24 53 -1 6 -2 20 -3
30 -4 63 -173 146 -202 100 -3 -5 -9 -9 -13 -8 -4 1 -11 0 -15 -2 -14 -5 -82
-159 -75 -169 3 -5 1 -9 -5 -9 -5 0 -13 -10 -17 -22 -3 -13 -15 -41 -24 -63
-10 -22 -34 -78 -53 -125 -92 -222 -122 -294 -157 -375 -15 -35 -57 -136 -115
-275 -31 -74 -63 -147 -71 -162 -8 -16 -13 -28 -9 -28 3 0 -1 -13 -10 -30 -9
-16 -22 -30 -30 -30 -25 0 -30 -1 -42 -12 -7 -6 -13 -7 -13 -2 -1 5 -7 -2 -14
-16 -8 -14 -12 -28 -10 -32 3 -4 0 -16 -5 -26 -8 -15 -19 -19 -52 -16 -23 2
-46 9 -50 16 -5 7 -9 9 -9 5 0 -10 -50 48 -50 58 0 11 -52 78 -87 113 -20 19
-43 32 -59 32 -14 0 -34 5 -45 10 -19 11 -19 11 1 50 23 45 25 46 46 25 25
-25 51 -18 63 16 10 30 12 31 33 17 31 -21 55 -9 54 24 -1 22 2 27 15 23 42
-14 58 -12 74 5 9 10 14 24 10 29 -4 7 8 11 34 11 40 0 40 0 34 33 -3 17 -3
29 1 25 4 -3 20 -2 36 3 29 11 44 41 28 57 -6 6 4 12 27 16 34 7 37 9 33 38
-3 20 0 32 10 36 9 3 23 13 32 22 14 14 15 20 4 35 -12 17 -10 22 17 44 21 18
28 31 24 44 -4 9 -11 17 -16 17 -16 0 -9 27 12 46 15 13 19 26 15 46 -3 17 0
30 8 35 19 11 29 50 16 58 -8 5 -6 13 5 25 23 25 16 64 -12 68 -29 4 -29 7 7
51 22 29 26 41 18 49 -7 7 -18 12 -25 12 -14 0 -18 16 -5 22 4 2 18 16 30 33
22 28 22 30 6 42 -17 12 -17 14 4 29 38 26 81 77 87 104 4 14 14 32 23 41 9 9
25 27 36 40 10 13 27 34 38 45 18 20 18 23 3 38 -9 9 -12 16 -6 16 6 0 23 19
38 43 15 23 33 46 40 50 29 18 12 30 -34 23 -27 -4 -54 -7 -60 -8 -7 -1 -13
-4 -13 -8 0 -4 -6 -7 -12 -8 -65 -5 -175 -46 -250 -92 -55 -34 -67 -34 -45 2
9 13 14 40 12 62 -2 29 2 42 18 55 73 59 90 79 89 107 -1 34 -5 55 -14 69 -5
9 -21 70 -22 87 -1 8 -56 51 -56 43 0 -3 -9 -1 -20 5 -17 9 -25 6 -45 -14 -28
-28 -31 -59 -10 -96 8 -14 14 -31 15 -37 0 -13 -59 -49 -72 -45 -5 1 -8 -3 -8
-9 0 -5 -4 -8 -8 -5 -5 3 -25 -8 -44 -24 -32 -26 -36 -35 -33 -68 3 -38 2 -39
-48 -61 -29 -12 -52 -21 -52 -20 0 1 -24 -13 -53 -30 -28 -17 -66 -38 -83 -46
-45 -24 -56 -47 178 393 l18 33 22 -25 c28 -32 29 -32 30 2 0 15 2 62 3 105 2
42 0 80 -4 84 -3 3 -6 2 -6 -3z m160 -602 c0 -9 -29 -35 -67 -59 -15 -10 -33
-22 -40 -28 -6 -5 -29 -21 -49 -35 -56 -37 -156 -139 -149 -150 3 -5 0 -10 -8
-10 -7 0 -26 -13 -41 -29 -24 -25 -30 -27 -52 -17 -13 6 -24 17 -24 24 0 8 -9
16 -20 19 -18 5 -18 8 -6 32 20 37 90 97 150 129 28 14 53 27 56 27 8 3 183
84 199 93 19 10 51 13 51 4z m-1590 -60 c107 -43 129 -55 181 -94 20 -15 38
-26 40 -25 2 1 3 1 3 -1 -1 -1 13 -18 30 -36 17 -18 36 -40 41 -47 16 -22 12
-52 -8 -55 -11 -1 -20 -4 -21 -6 -1 -2 -12 -16 -24 -31 l-21 -28 -17 33 c-25
50 -122 157 -168 185 -23 14 -48 32 -56 40 -8 7 -43 32 -77 54 -35 22 -63 45
-63 49 0 16 64 1 160 -38z m531 -348 c16 -14 16 -20 3 -65 -17 -58 -23 -96
-25 -159 -1 -25 -9 -55 -18 -67 -15 -20 -24 -22 -108 -23 l-93 0 0 -45 0 -44
-36 24 c-50 34 -82 84 -72 115 6 23 26 128 30 157 1 7 5 10 9 8 4 -3 12 10 18
28 l12 32 34 -40 c19 -22 34 -43 35 -47 0 -4 12 -14 28 -22 23 -12 33 -12 67
0 22 7 41 14 41 14 7 0 17 41 19 70 2 31 23 80 34 80 2 0 12 -7 22 -16z m672
-125 c17 -11 36 -81 38 -137 3 -54 2 -55 -51 -101 -30 -25 -56 -44 -59 -41 -2
3 -4 24 -4 48 1 40 0 42 -28 42 -26 0 -28 2 -17 19 7 11 16 17 20 15 4 -3 7
12 6 33 -1 49 8 79 40 126 23 34 27 36 35 20 6 -10 15 -21 20 -24z"/>
<path d="M5114 4203 c3 -16 3 -33 -2 -39 -4 -7 -52 -35 -107 -64 -55 -29 -137
-72 -182 -96 -105 -55 -138 -60 -169 -29 -33 33 -32 77 2 104 39 30 21 45 -27
21 -35 -19 -39 -23 -34 -51 7 -40 38 -99 61 -120 50 -43 124 -38 215 14 24 13
98 52 163 86 l119 62 29 -27 c39 -38 35 -17 -14 81 -43 85 -64 108 -54 58z"/>
<path d="M1517 4100 c-20 -32 -31 -36 -72 -20 l-27 10 22 -35 22 -35 -22 -35
c-24 -39 -25 -39 19 -24 31 11 34 9 61 -22 23 -28 28 -31 28 -14 -1 74 -3 72
66 94 16 5 11 9 -22 19 -42 13 -50 27 -43 80 3 22 -14 13 -32 -18z"/>
<path d="M4446 3977 c-4 -24 -12 -44 -19 -45 -68 -6 -72 -11 -22 -35 34 -16
36 -20 32 -57 -2 -22 -3 -40 -1 -40 2 0 14 12 28 26 24 27 25 27 65 11 l40
-17 -21 41 -21 40 23 24 c29 30 23 37 -18 26 -30 -9 -33 -7 -56 31 l-23 40 -7
-45z"/>
<path d="M5037 3849 c-99 -23 -184 -86 -222 -164 -41 -86 -15 -218 58 -288
128 -126 391 -75 478 92 44 86 24 213 -45 289 -56 61 -175 92 -269 71z m193
-79 c98 -26 150 -130 109 -214 -29 -58 -127 -121 -223 -145 -207 -51 -367 86
-271 231 66 100 256 163 385 128z"/>
<path d="M1344 3817 c-17 -36 -21 -38 -56 -35 -38 4 -49 -4 -25 -19 33 -21 39
-41 23 -72 -22 -41 -20 -44 14 -26 39 20 43 19 74 -12 l27 -27 -5 46 c-6 45
-4 47 29 68 19 12 35 23 35 25 0 2 -14 3 -30 3 -38 -1 -50 10 -59 54 l-8 33
-19 -38z"/>
<path d="M555 3667 c-6 -29 -9 -60 -7 -68 2 -9 82 -69 178 -134 96 -65 171
-121 167 -126 -4 -4 -74 -30 -156 -58 -81 -27 -151 -53 -157 -56 -5 -3 -18 -8
-27 -10 -46 -9 -73 -26 -73 -45 0 -11 0 -21 0 -22 -1 -2 -5 -20 -9 -40 -7 -29
-6 -38 4 -38 7 0 16 12 19 26 l7 26 77 -7 c42 -4 88 -8 102 -11 76 -11 97 -14
120 -19 14 -3 50 -8 80 -11 75 -8 104 -23 108 -57 3 -24 21 -39 23 -19 0 4 2
16 4 27 2 11 7 40 10 64 3 25 8 48 11 53 3 4 -1 8 -8 8 -7 0 -18 -10 -23 -22
-9 -20 -18 -23 -65 -23 -30 -1 -75 3 -100 7 -25 5 -61 10 -80 13 -19 3 -44 6
-55 9 -11 2 -42 7 -69 11 -26 3 -44 10 -40 15 8 6 190 72 357 127 47 16 47 16
25 32 -13 8 -32 23 -42 33 -11 10 -24 18 -28 18 -5 0 -33 18 -63 40 -30 22
-58 40 -64 40 -5 0 -11 4 -13 8 -2 5 -36 31 -75 57 -40 26 -73 52 -73 57 0 5
3 7 8 5 4 -3 34 -8 67 -12 33 -3 80 -10 105 -15 25 -5 71 -12 104 -15 32 -4
79 -12 105 -19 42 -10 46 -14 49 -43 3 -31 22 -48 22 -20 0 6 6 49 14 95 14
85 7 113 -16 65 -11 -24 -20 -28 -53 -28 -22 0 -67 5 -100 11 -33 7 -82 15
-110 18 -27 3 -61 8 -75 10 -14 3 -43 7 -65 11 -79 11 -107 30 -97 67 2 10 0
18 -5 18 -5 0 -13 -24 -18 -53z"/>
<path d="M4600 3686 c-11 -36 -23 -42 -72 -37 -28 3 -21 -13 13 -33 26 -15 30
-23 26 -51 -3 -18 -8 -38 -12 -45 -6 -9 -3 -9 13 -1 12 6 24 16 27 21 10 16
34 12 66 -11 34 -24 34 -23 14 23 -13 34 -13 36 10 58 33 31 31 38 -6 35 -27
-2 -33 2 -49 37 l-18 40 -12 -36z"/>
<path d="M1224 3504 c-4 -19 -12 -37 -18 -39 -6 -2 -24 -7 -41 -10 -19 -5 -25
-9 -15 -13 8 -2 23 -14 34 -24 16 -17 17 -25 8 -54 -12 -40 -10 -41 28 -13
l29 22 34 -21 34 -20 -13 46 c-8 25 -13 46 -12 47 2 1 16 11 32 23 29 22 25
26 -25 22 -21 -1 -30 6 -43 34 -9 20 -19 36 -21 36 -2 0 -7 -16 -11 -36z"/>
<path d="M4699 3378 c-7 -12 -12 -26 -11 -30 3 -12 -15 -13 -62 -4 -33 6 -33
-1 0 -35 l26 -27 -20 -41 c-11 -22 -16 -41 -11 -41 5 0 9 4 9 8 0 4 13 13 29
19 26 9 32 8 52 -13 31 -33 38 -30 33 14 -4 33 -1 39 28 56 l33 19 -33 7 c-41
9 -40 8 -47 50 -8 44 -11 46 -26 18z"/>
<path d="M4882 3051 c-2 -207 -5 -198 63 -197 51 1 60 17 17 28 -39 10 -54 42
-51 108 4 63 17 98 42 106 30 9 207 11 208 2 5 -28 4 -117 -1 -138 -4 -14 -16
-27 -29 -30 -43 -10 -15 -25 48 -25 43 0 66 4 69 13 2 7 -5 12 -17 12 -32 0
-49 37 -47 110 l1 65 113 1 112 1 0 -78 c0 -104 -16 -137 -62 -130 -5 0 -8 -6
-8 -15 0 -12 8 -15 38 -10 20 3 42 5 48 6 17 0 13 360 -3 360 -7 0 -12 -3 -12
-7 4 -24 -3 -42 -18 -48 -10 -4 -116 -9 -235 -12 -243 -5 -258 -2 -258 52 0 8
-4 15 -8 15 -4 0 -9 -85 -10 -189z"/>
<path d="M1169 3208 c-1 -10 -3 -22 -4 -28 -1 -5 -3 -18 -4 -29 -1 -18 -32
-34 -61 -32 -11 1 -10 -3 4 -14 11 -8 26 -15 33 -15 15 0 28 -43 20 -65 -10
-25 10 -26 29 0 22 29 34 31 76 9 l31 -16 -21 36 c-27 46 -27 58 -2 81 29 26
25 35 -11 25 -38 -11 -45 -8 -70 34 -14 22 -19 26 -20 14z"/>
<path d="M4728 3042 c-23 -27 -25 -28 -61 -16 -20 7 -37 11 -37 9 0 -2 9 -20
21 -39 l21 -35 -28 -36 -27 -36 27 11 c43 16 60 12 84 -23 l22 -32 1 30 c1 17
2 37 3 45 0 9 17 19 39 24 l37 10 -37 21 c-34 19 -38 24 -35 58 1 20 1 37 -2
37 -2 0 -15 -13 -28 -28z"/>
<path d="M996 2969 c-4 -9 -6 -20 -5 -25 5 -30 -21 -46 -98 -60 -15 -3 -59
-11 -98 -19 -38 -8 -85 -17 -104 -20 -19 -3 -37 -7 -40 -9 -5 -3 -60 -12 -110
-18 -21 -2 -33 5 -43 27 -15 33 -30 32 -23 -2 3 -16 8 -45 11 -65 6 -34 11
-39 48 -49 22 -5 49 -12 58 -15 9 -3 25 -6 35 -8 10 -2 38 -9 63 -16 25 -7 50
-13 55 -14 11 -2 143 -36 164 -42 9 -3 4 -11 -15 -26 -16 -12 -31 -25 -34 -28
-3 -3 -27 -23 -55 -45 -27 -21 -52 -42 -55 -45 -3 -3 -32 -25 -65 -50 -114
-86 -115 -87 -103 -152 6 -35 15 -58 23 -58 7 0 11 9 8 23 -3 13 2 29 10 35
13 11 87 28 201 48 17 2 38 7 46 9 8 2 31 7 50 10 19 3 53 10 75 15 22 5 54
10 72 10 26 0 33 -5 43 -32 19 -52 24 -14 9 68 -14 79 -23 92 -32 45 -7 -35
-26 -47 -89 -55 -26 -4 -53 -9 -60 -11 -12 -4 -49 -12 -93 -19 -53 -9 -93 -18
-122 -26 -18 -4 -35 -5 -37 -1 -4 5 118 106 317 262 20 16 18 17 -49 33 -38 9
-103 25 -144 37 -41 11 -108 29 -149 39 -94 24 -105 33 -48 44 14 2 62 12 104
20 43 9 89 19 103 21 14 3 41 8 60 11 19 3 52 9 73 14 32 7 42 5 58 -11 11
-11 17 -24 14 -29 -4 -6 0 -10 8 -10 12 0 13 9 5 48 -4 26 -11 58 -13 72 -11
59 -22 85 -29 69z"/>
<path d="M1166 2843 c6 -39 5 -42 -26 -58 -25 -13 -30 -19 -19 -26 8 -5 22 -9
31 -9 20 0 37 -27 33 -52 -5 -31 14 -30 30 2 15 29 19 30 58 25 l42 -7 -20 24
c-11 13 -24 26 -30 30 -6 4 -3 21 8 43 23 47 22 47 -18 28 -35 -17 -35 -17
-66 12 l-30 30 7 -42z"/>
<path d="M4705 2714 l-29 -23 -34 19 c-18 11 -35 20 -37 20 -3 0 3 -19 12 -42
l16 -41 -33 -30 -34 -30 43 6 c42 5 43 5 61 -36 l19 -41 6 29 c3 17 10 37 14
45 8 15 11 16 54 19 21 1 20 3 -11 29 -30 25 -32 29 -22 61 5 19 9 36 7 37 -1
1 -15 -8 -32 -22z"/>
<path d="M5390 2710 c-17 -17 -68 -40 -157 -70 l-133 -44 -97 22 c-101 23
-123 37 -123 79 0 57 -29 -2 -32 -64 0 -5 -5 -19 -10 -33 -10 -27 -20 -100
-13 -100 3 0 11 13 19 29 9 16 22 31 30 34 19 8 205 -31 227 -47 25 -18 139
-118 180 -158 26 -26 37 -44 34 -58 -3 -14 0 -20 8 -17 13 4 39 106 31 119 -3
5 -13 -1 -23 -13 l-17 -21 -65 53 c-35 29 -79 67 -97 83 l-33 30 113 37 c79
25 118 33 131 27 10 -5 15 -13 12 -18 -3 -5 -1 -11 4 -15 6 -3 14 11 19 32 36
144 35 158 -8 113z"/>
<path d="M1224 2535 c4 -17 9 -38 12 -47 3 -11 -4 -23 -21 -34 -33 -22 -32
-29 6 -32 42 -3 46 -7 54 -42 9 -39 20 -38 31 3 9 30 13 32 52 32 l43 0 -35
31 c-33 29 -35 34 -26 65 12 42 9 44 -23 19 -28 -23 -47 -18 -83 17 -17 17
-17 16 -10 -12z"/>
<path d="M4526 2403 c3 -16 7 -33 9 -40 2 -7 -12 -25 -33 -41 -34 -28 -35 -29
-12 -30 54 0 58 -2 64 -37 8 -43 17 -44 36 -2 13 27 20 32 48 30 38 -2 41 9 8
35 l-24 19 18 41 19 42 -39 -20 -39 -20 -27 25 c-34 31 -36 31 -28 -2z"/>
<path d="M1432 2233 l-20 -28 -36 18 c-48 23 -49 22 -26 -18 18 -31 18 -65 1
-65 -3 0 -11 -8 -18 -19 -10 -17 -9 -17 28 -11 38 7 40 6 55 -26 9 -19 20 -34
25 -34 5 0 8 3 7 8 -4 13 12 75 18 69 3 -3 19 -1 36 5 l31 11 -37 19 c-36 18
-38 22 -34 59 4 46 -3 49 -30 12z"/>
<path d="M4888 2197 l4 -62 -61 -30 c-68 -32 -66 -37 20 -54 31 -7 56 -17 57
-24 4 -46 14 -122 16 -124 1 -1 19 27 40 63 l37 65 62 -6 c34 -4 65 -9 70 -12
21 -13 2 17 -38 57 l-45 45 30 60 c16 32 28 61 25 63 -2 2 -31 -10 -65 -27
l-61 -31 -40 40 c-22 22 -44 40 -48 40 -4 0 -5 -28 -3 -63z"/>
<path d="M1009 2215 c-3 -2 -14 -6 -25 -8 -67 -11 -165 -92 -205 -168 -30 -58
-32 -156 -4 -214 67 -138 221 -187 368 -117 108 52 169 128 183 230 14 106
-63 232 -162 266 -44 15 -144 22 -155 11z m206 -77 c83 -43 103 -134 50 -224
-31 -53 -83 -96 -160 -134 -97 -48 -170 -54 -239 -20 -103 49 -106 178 -7 276
103 101 266 148 356 102z"/>
<path d="M4388 2144 c-2 -5 -4 -25 -3 -44 0 -32 -3 -37 -39 -51 l-39 -16 40
-16 c35 -14 40 -19 38 -46 -1 -16 2 -36 6 -43 7 -10 9 -10 9 2 0 8 10 26 20
39 17 20 26 22 56 16 l36 -6 -21 30 c-21 29 -21 31 -4 58 10 15 22 32 28 36 9
8 -7 6 -61 -9 -16 -4 -26 2 -41 26 -11 18 -22 28 -25 24z"/>
<path d="M1605 1971 c-17 -34 -24 -36 -73 -21 l-34 9 27 -36 c27 -34 27 -36
11 -69 -8 -19 -14 -34 -12 -34 2 0 18 5 36 11 30 11 34 10 61 -22 l29 -34 -3
40 c-2 38 0 41 38 60 l40 19 -37 11 c-46 13 -51 18 -53 55 -2 43 -11 46 -30
11z"/>
<path d="M4559 1932 c-91 -103 -127 -148 -161 -204 -36 -58 -38 -66 -34 -128
7 -115 84 -224 193 -272 52 -23 141 -21 183 3 39 22 126 107 201 195 71 83 90
122 43 85 -33 -26 -41 -22 -159 78 -49 41 -103 87 -120 101 -16 14 -52 46 -79
72 -48 47 -48 48 -32 72 33 51 10 49 -35 -2z m98 -193 c54 -45 105 -89 113
-98 8 -9 37 -34 65 -56 85 -68 83 -60 28 -115 -67 -67 -111 -88 -183 -85 -177
7 -325 202 -258 339 23 48 81 96 115 96 14 0 60 -31 120 -81z"/>
<path d="M4200 1900 c-1 -3 -3 -14 -5 -24 -12 -63 -13 -64 -84 -69 -17 -1 29
-36 48 -37 10 0 12 -11 7 -47 l-5 -46 32 31 c31 29 33 30 60 15 36 -19 43 -12
24 24 -15 27 -14 29 16 62 l32 33 -42 -6 c-41 -5 -44 -4 -62 32 -11 20 -21 35
-21 32z"/>
<path d="M1825 1738 c-17 -35 -21 -37 -57 -35 -46 4 -48 -5 -8 -33 29 -21 29
-22 15 -56 -15 -37 -7 -43 30 -18 23 15 26 14 60 -11 l35 -27 -6 45 c-6 39 -4
46 14 51 11 4 25 12 31 19 8 10 2 14 -27 15 -44 3 -48 7 -60 52 l-9 35 -18
-37z"/>
<path d="M1500 1742 c0 -4 7 -18 16 -30 8 -12 13 -30 10 -40 -4 -10 -80 -91
-171 -181 l-165 -163 -40 42 c-48 50 -59 84 -38 121 9 14 12 32 8 38 -5 8 -21
-5 -49 -38 l-42 -50 42 -38 c63 -56 203 -199 245 -249 l36 -43 49 41 c33 27
46 45 40 51 -7 7 -15 6 -24 -1 -8 -7 -28 -14 -45 -16 -26 -3 -40 5 -82 43
l-52 46 164 161 c91 89 173 166 184 172 15 8 23 7 41 -10 12 -11 26 -17 32
-13 7 4 -20 38 -66 86 -74 74 -93 89 -93 71z"/>
<path d="M3956 1651 c-18 -38 -22 -41 -60 -41 l-41 -1 32 -27 c31 -26 32 -28
19 -64 -16 -44 -14 -45 21 -18 32 25 44 25 77 -1 28 -22 30 -19 17 26 -9 32
-6 37 39 68 l24 17 -29 0 c-40 0 -57 13 -70 51 l-11 31 -18 -41z"/>
<path d="M2079 1565 c-3 -52 -3 -51 -47 -58 -46 -7 -47 -10 -6 -32 32 -17 35
-23 31 -51 -7 -43 0 -47 31 -19 l26 24 32 -19 c43 -27 45 -26 27 19 -15 39
-15 40 13 66 l29 26 -43 -3 c-42 -4 -45 -2 -63 34 -23 45 -29 47 -30 13z"/>
<path d="M4180 1528 c-25 -18 -47 -35 -50 -39 -3 -3 -10 -8 -15 -10 -6 -2 -54
-33 -107 -67 l-96 -64 24 -49 c14 -27 29 -49 33 -49 16 0 19 13 10 37 -5 13
-7 34 -3 47 6 25 90 84 132 92 25 5 34 0 64 -38 59 -73 97 -134 90 -144 -10
-12 -60 -48 -98 -67 -30 -15 -33 -15 -50 4 -10 12 -21 16 -27 10 -9 -9 59
-121 74 -121 13 0 20 18 9 25 -21 13 -8 45 33 78 82 66 76 68 147 -34 34 -50
58 -94 54 -99 -20 -19 -138 -90 -149 -90 -7 0 -24 9 -38 20 -37 30 -44 6 -10
-35 15 -18 32 -34 36 -34 9 -1 71 41 75 52 2 4 8 7 14 7 5 0 15 6 23 13 7 6
52 39 99 71 79 55 107 90 51 64 -20 -9 -28 -8 -44 6 -31 28 -261 362 -261 379
0 9 7 23 16 31 32 33 7 35 -36 4z"/>
<path d="M3683 1486 c-20 -32 -24 -34 -57 -26 -28 6 -36 5 -36 -6 0 -8 3 -14
8 -14 4 0 13 -9 20 -20 10 -16 9 -26 -8 -55 -23 -40 -22 -41 25 -18 34 16 36
16 58 -5 32 -30 37 -28 33 12 -2 32 1 36 38 53 l40 18 -39 11 c-30 8 -41 17
-47 39 -4 16 -5 32 -2 37 3 4 2 8 -3 8 -4 0 -18 -16 -30 -34z"/>
<path d="M2368 1435 c0 -11 -2 -24 -3 -30 -2 -5 -3 -15 -4 -22 0 -6 -18 -17
-38 -24 l-38 -12 43 -18 c24 -10 42 -24 41 -31 -1 -7 -1 -24 0 -38 l1 -25 24
30 c23 28 26 29 65 19 23 -6 41 -9 41 -7 0 2 -10 17 -22 33 l-22 30 23 31 c23
31 23 48 0 33 -33 -20 -64 -13 -86 19 -20 27 -23 29 -25 12z"/>
<path d="M3392 1383 c-27 -33 -33 -36 -54 -26 -56 27 -60 26 -36 -16 l22 -38
-27 -28 c-14 -16 -25 -30 -24 -32 2 -1 20 2 42 8 30 9 40 8 46 -3 4 -7 15 -22
23 -33 14 -18 16 -18 17 -2 1 9 3 22 4 27 1 6 3 17 4 26 0 8 4 13 9 11 4 -2
23 1 42 8 l35 12 -39 17 c-37 15 -38 17 -34 61 2 25 3 45 2 45 -1 0 -15 -17
-32 -37z"/>
<path d="M2673 1333 c5 -38 3 -42 -29 -59 -42 -23 -38 -30 21 -33 19 -1 25 -8
31 -36 8 -43 14 -44 36 -6 15 27 20 29 60 25 l43 -5 -29 30 -30 31 18 36 c16
35 16 36 -1 29 -70 -28 -71 -28 -98 2 l-26 28 4 -42z"/>
<path d="M2985 1311 c12 -34 11 -37 -18 -69 l-32 -33 42 5 c41 6 43 4 62 -32
l20 -37 7 33 c8 39 15 44 62 44 l37 0 -34 28 c-31 27 -33 30 -22 61 15 42 9
46 -29 18 l-31 -24 -39 21 -38 21 13 -36z"/>
<path d="M3835 1302 c-22 -10 -98 -40 -170 -67 -71 -26 -131 -49 -132 -50 -2
-1 5 -26 15 -56 18 -57 37 -64 37 -14 0 39 12 57 55 76 107 49 134 37 183 -81
21 -51 35 -96 30 -100 -12 -13 -111 -50 -131 -50 -10 0 -26 10 -37 22 -28 33
-28 10 -1 -57 23 -58 50 -86 46 -49 -5 42 2 52 48 74 26 12 55 26 64 31 10 5
20 9 23 9 5 0 43 -80 75 -162 l19 -46 -67 -27 c-96 -39 -109 -40 -137 -9 -36
39 -47 21 -19 -30 l25 -44 102 42 c56 24 129 55 162 69 65 27 86 51 37 41 -24
-5 -33 -2 -45 17 -14 23 -135 304 -162 378 -15 41 -9 67 16 74 10 3 19 10 19
16 0 15 -8 14 -55 -7z"/>
<path d="M1772 1250 l-24 -60 -71 0 -72 -1 25 -22 c14 -12 38 -32 54 -44 l28
-22 -20 -63 c-11 -35 -19 -64 -18 -65 2 -2 30 14 63 36 l61 39 57 -39 c32 -22
60 -38 61 -36 2 2 -5 28 -16 58 -11 29 -20 58 -20 64 0 5 26 28 56 50 l56 40
-74 3 -74 3 -19 52 c-10 29 -21 55 -24 59 -4 4 -17 -20 -29 -52z"/>
<path d="M2155 1213 c-11 -26 -21 -51 -23 -55 -9 -19 24 -5 44 19 26 33 61 34
131 3 74 -33 80 -50 50 -141 -14 -41 -30 -86 -36 -102 l-11 -27 -37 16 c-21 9
-44 17 -51 17 -25 1 -64 46 -57 67 4 13 2 20 -7 20 -19 0 -60 -127 -45 -137 6
-3 13 -1 15 5 12 38 44 45 97 22 11 -5 34 -13 52 -17 l32 -8 -33 -97 c-19 -54
-31 -98 -28 -98 3 0 1 -5 -4 -10 -8 -8 -34 -3 -85 16 -92 33 -99 38 -99 80 0
52 -24 42 -36 -15 l-10 -48 76 -24 c41 -12 78 -24 83 -25 4 -1 8 -2 10 -3 1
-1 40 -15 87 -30 88 -29 122 -30 77 -2 -15 8 -28 20 -31 27 -2 6 18 78 46 160
27 82 51 154 52 159 2 6 8 23 14 38 7 16 12 34 12 40 0 28 32 57 61 57 16 0
29 5 29 10 0 6 -3 10 -7 11 -18 2 -42 9 -108 34 -38 15 -81 30 -95 35 -14 4
-49 17 -78 29 -29 11 -56 21 -60 21 -4 0 -16 -21 -27 -47z"/>
<path d="M3445 1149 c-22 -4 -58 -10 -80 -14 -22 -3 -58 -8 -80 -12 -22 -4
-42 -7 -45 -8 -87 -14 -159 -65 -193 -137 -41 -86 -35 -220 12 -304 23 -41 76
-84 104 -84 8 0 19 -5 22 -10 9 -14 227 -3 315 16 14 3 36 6 49 7 13 1 26 8
29 16 3 8 0 11 -6 7 -16 -10 -60 11 -65 31 -3 10 -8 38 -11 63 -3 25 -8 56
-11 69 -2 13 -7 49 -11 80 -3 31 -8 58 -9 61 -2 3 -6 32 -10 65 -3 33 -7 69
-9 80 -5 29 12 55 34 55 19 0 28 15 13 23 -5 2 -26 0 -48 -4z m-84 -78 c14
-17 21 -48 34 -151 1 -8 6 -40 10 -70 5 -30 9 -62 10 -70 1 -8 6 -40 10 -70
14 -89 12 -103 -10 -107 -59 -10 -143 -5 -178 12 -61 29 -120 98 -133 158 -12
48 -12 157 -2 191 16 51 66 105 113 121 55 18 126 12 146 -14z"/>
<path d="M2583 1132 c-11 -8 -19 -30 -28 -79 -7 -43 19 -46 33 -4 6 18 21 32
40 39 17 6 32 9 34 7 1 -2 20 -6 41 -9 21 -3 52 -13 69 -22 l31 -16 -6 -81
c-8 -108 -17 -146 -31 -142 -6 2 -33 6 -61 9 -70 6 -82 13 -89 49 -10 48 -25
20 -33 -56 -6 -70 4 -88 25 -42 12 26 25 29 92 25 19 -1 44 -3 55 -4 23 -1 24
-15 11 -131 -4 -38 -8 -76 -9 -83 0 -10 -13 -12 -46 -8 -141 15 -153 22 -160
89 -1 4 -5 7 -10 7 -9 0 -20 -99 -11 -101 3 0 12 -2 20 -4 8 -1 47 -6 85 -10
39 -4 84 -8 100 -10 115 -13 155 -14 155 -5 0 5 -11 12 -24 16 -37 9 -38 20
-20 173 4 36 8 80 10 96 3 45 15 146 20 180 5 35 31 58 57 51 10 -2 17 1 17
10 0 8 -11 14 -27 15 -30 1 -46 3 -158 19 -38 5 -90 12 -114 15 -23 3 -46 7
-50 9 -4 3 -12 2 -18 -2z"/>
</g>
</svg>
